<svg width="231" height="62" viewBox="0 0 231 62" fill="none" xmlns="http://www.w3.org/2000/svg">
<path d="M9.19788 23.256C7.59788 23.256 6.05121 23 4.55788 22.488C3.06454 21.9547 1.79521 21.2293 0.749875 20.312L3.50188 16.504C3.62988 16.696 3.88588 16.952 4.26988 17.272C4.65388 17.5707 5.14454 17.88 5.74188 18.2C6.33921 18.4987 7.01121 18.7547 7.75788 18.968C8.50454 19.1813 9.29388 19.288 10.1259 19.288C10.9792 19.288 11.6832 19.1813 12.2379 18.968C12.8139 18.7333 13.2405 18.4133 13.5179 18.008C13.7952 17.5813 13.9339 17.0907 13.9339 16.536C13.9339 15.96 13.7205 15.5013 13.2939 15.16C12.8885 14.8187 12.3232 14.52 11.5979 14.264C10.8725 13.9867 10.0405 13.6987 9.10188 13.4C8.03521 13.0587 7.13921 12.6747 6.41388 12.248C5.68854 11.8213 5.13388 11.3093 4.74988 10.712C4.38721 10.0933 4.20588 9.35733 4.20588 8.504C4.20588 7.18133 4.46188 5.99733 4.97388 4.952C5.50721 3.90667 6.22188 3.032 7.11788 2.328C8.03521 1.60267 9.06988 1.05867 10.2219 0.695999C11.3739 0.311999 12.5792 0.119999 13.8379 0.119999C14.8405 0.119999 15.7685 0.237332 16.6219 0.471998C17.4965 0.706666 18.2859 1.016 18.9899 1.4C19.7152 1.784 20.3445 2.2 20.8779 2.648L18.1579 6.232C18.0939 6.08267 17.9019 5.88 17.5819 5.624C17.2619 5.368 16.8565 5.12267 16.3659 4.888C15.8752 4.65333 15.3312 4.45067 14.7339 4.28C14.1365 4.088 13.5179 3.992 12.8779 3.992C12.0459 3.992 11.3312 4.12 10.7339 4.376C10.1579 4.632 9.73121 4.984 9.45388 5.432C9.17654 5.88 9.03788 6.41333 9.03788 7.032C9.03788 7.50133 9.19788 7.896 9.51788 8.216C9.85921 8.536 10.3392 8.81333 10.9579 9.048C11.5765 9.26133 12.3339 9.50667 13.2299 9.784C14.3605 10.104 15.3419 10.488 16.1739 10.936C17.0272 11.384 17.6885 11.9493 18.1579 12.632C18.6272 13.2933 18.8619 14.1467 18.8619 15.192C18.8619 16.6213 18.5845 17.848 18.0299 18.872C17.4965 19.896 16.7712 20.728 15.8539 21.368C14.9365 22.008 13.9019 22.488 12.7499 22.808C11.6192 23.1067 10.4352 23.256 9.19788 23.256ZM29.8336 23.16C28.4896 23.16 27.295 22.904 26.2496 22.392C25.2043 21.88 24.319 21.1867 23.5936 20.312C22.8896 19.416 22.3563 18.4027 21.9936 17.272C21.631 16.1413 21.4496 14.9573 21.4496 13.72C21.4496 12.3547 21.6843 11.0107 22.1536 9.688C22.623 8.344 23.2736 7.10667 24.1056 5.976C24.959 4.824 25.951 3.81067 27.0816 2.936C28.2123 2.06133 29.4283 1.37867 30.7296 0.887999C32.0523 0.375999 33.4176 0.119999 34.8256 0.119999C36.1483 0.119999 37.3216 0.386665 38.3456 0.919998C39.391 1.432 40.2656 2.136 40.9696 3.032C41.695 3.928 42.2283 4.94133 42.5696 6.072C42.9323 7.20267 43.1136 8.38667 43.1136 9.624C43.1136 10.9893 42.879 12.3333 42.4096 13.656C41.9403 14.9573 41.2896 16.184 40.4576 17.336C39.6256 18.488 38.6443 19.5013 37.5136 20.376C36.4043 21.2507 35.1883 21.9333 33.8656 22.424C32.5643 22.9147 31.2203 23.16 29.8336 23.16ZM30.6976 19.256C31.871 19.256 32.9376 18.9787 33.8976 18.424C34.879 17.848 35.7216 17.1013 36.4256 16.184C37.151 15.2667 37.695 14.264 38.0576 13.176C38.4416 12.0667 38.6336 10.9893 38.6336 9.944C38.6336 8.87733 38.4523 7.90667 38.0896 7.032C37.7483 6.136 37.2256 5.42133 36.5216 4.888C35.839 4.33333 34.9643 4.056 33.8976 4.056C32.7243 4.056 31.647 4.33333 30.6656 4.888C29.7056 5.44267 28.8736 6.17867 28.1696 7.096C27.4656 8.01333 26.911 9.02667 26.5056 10.136C26.1216 11.224 25.9296 12.3013 25.9296 13.368C25.9296 14.4133 26.1003 15.384 26.4416 16.28C26.8043 17.176 27.3376 17.9013 28.0416 18.456C28.7456 18.9893 29.631 19.256 30.6976 19.256ZM48.7301 0.279999H53.1141L49.1141 19.128H59.9621L59.1621 23H43.8981L48.7301 0.279999ZM72.7796 0.279999H76.7156L80.0116 23H75.4676L74.7636 17.336H67.4356L64.3636 23H59.8196L72.7796 0.279999ZM74.6676 14.232L73.6756 5.304L68.8116 14.232H74.6676ZM82.4606 23L87.2926 0.279999H96.8926C98.0446 0.279999 99.026 0.578665 99.8366 1.176C100.647 1.77333 101.266 2.552 101.693 3.512C102.141 4.472 102.365 5.48533 102.365 6.552C102.365 7.384 102.226 8.20533 101.949 9.016C101.693 9.80533 101.319 10.552 100.829 11.256C100.338 11.96 99.762 12.5893 99.1006 13.144C98.4606 13.6987 97.7566 14.136 96.9886 14.456L100.061 23H95.0686L92.3806 15.384H88.4446L86.8446 23H82.4606ZM94.3646 11.512C94.8126 11.512 95.2393 11.3947 95.6446 11.16C96.05 10.904 96.4126 10.5733 96.7326 10.168C97.074 9.74133 97.3406 9.26133 97.5326 8.728C97.7246 8.17333 97.8206 7.59733 97.8206 7C97.8206 6.44533 97.7246 5.95467 97.5326 5.528C97.362 5.10133 97.1166 4.77067 96.7966 4.536C96.498 4.28 96.1566 4.152 95.7726 4.152H90.8446L89.2766 11.512H94.3646ZM118.01 23.256C116.41 23.256 114.864 23 113.37 22.488C111.877 21.9547 110.608 21.2293 109.562 20.312L112.314 16.504C112.442 16.696 112.698 16.952 113.082 17.272C113.466 17.5707 113.957 17.88 114.554 18.2C115.152 18.4987 115.824 18.7547 116.57 18.968C117.317 19.1813 118.106 19.288 118.938 19.288C119.792 19.288 120.496 19.1813 121.05 18.968C121.626 18.7333 122.053 18.4133 122.33 18.008C122.608 17.5813 122.746 17.0907 122.746 16.536C122.746 15.96 122.533 15.5013 122.106 15.16C121.701 14.8187 121.136 14.52 120.41 14.264C119.685 13.9867 118.853 13.6987 117.914 13.4C116.848 13.0587 115.952 12.6747 115.226 12.248C114.501 11.8213 113.946 11.3093 113.562 10.712C113.2 10.0933 113.018 9.35733 113.018 8.504C113.018 7.18133 113.274 5.99733 113.786 4.952C114.32 3.90667 115.034 3.032 115.93 2.328C116.848 1.60267 117.882 1.05867 119.034 0.695999C120.186 0.311999 121.392 0.119999 122.65 0.119999C123.653 0.119999 124.581 0.237332 125.434 0.471998C126.309 0.706666 127.098 1.016 127.802 1.4C128.528 1.784 129.157 2.2 129.69 2.648L126.97 6.232C126.906 6.08267 126.714 5.88 126.394 5.624C126.074 5.368 125.669 5.12267 125.178 4.888C124.688 4.65333 124.144 4.45067 123.546 4.28C122.949 4.088 122.33 3.992 121.69 3.992C120.858 3.992 120.144 4.12 119.546 4.376C118.97 4.632 118.544 4.984 118.266 5.432C117.989 5.88 117.85 6.41333 117.85 7.032C117.85 7.50133 118.01 7.896 118.33 8.216C118.672 8.536 119.152 8.81333 119.77 9.048C120.389 9.26133 121.146 9.50667 122.042 9.784C123.173 10.104 124.154 10.488 124.986 10.936C125.84 11.384 126.501 11.9493 126.97 12.632C127.44 13.2933 127.674 14.1467 127.674 15.192C127.674 16.6213 127.397 17.848 126.842 18.872C126.309 19.896 125.584 20.728 124.666 21.368C123.749 22.008 122.714 22.488 121.562 22.808C120.432 23.1067 119.248 23.256 118.01 23.256ZM135.778 15L131.17 0.279999H135.97L138.786 11.224L146.338 0.279999H151.106L140.13 15.064L138.466 23H134.082L135.778 15ZM155.417 23.256C153.817 23.256 152.27 23 150.777 22.488C149.283 21.9547 148.014 21.2293 146.969 20.312L149.721 16.504C149.849 16.696 150.105 16.952 150.489 17.272C150.873 17.5707 151.363 17.88 151.961 18.2C152.558 18.4987 153.23 18.7547 153.977 18.968C154.723 19.1813 155.513 19.288 156.345 19.288C157.198 19.288 157.902 19.1813 158.457 18.968C159.033 18.7333 159.459 18.4133 159.737 18.008C160.014 17.5813 160.153 17.0907 160.153 16.536C160.153 15.96 159.939 15.5013 159.513 15.16C159.107 14.8187 158.542 14.52 157.817 14.264C157.091 13.9867 156.259 13.6987 155.321 13.4C154.254 13.0587 153.358 12.6747 152.633 12.248C151.907 11.8213 151.353 11.3093 150.969 10.712C150.606 10.0933 150.425 9.35733 150.425 8.504C150.425 7.18133 150.681 5.99733 151.193 4.952C151.726 3.90667 152.441 3.032 153.337 2.328C154.254 1.60267 155.289 1.05867 156.441 0.695999C157.593 0.311999 158.798 0.119999 160.057 0.119999C161.059 0.119999 161.987 0.237332 162.841 0.471998C163.715 0.706666 164.505 1.016 165.209 1.4C165.934 1.784 166.563 2.2 167.097 2.648L164.377 6.232C164.313 6.08267 164.121 5.88 163.801 5.624C163.481 5.368 163.075 5.12267 162.585 4.888C162.094 4.65333 161.55 4.45067 160.953 4.28C160.355 4.088 159.737 3.992 159.097 3.992C158.265 3.992 157.55 4.12 156.953 4.376C156.377 4.632 155.95 4.984 155.673 5.432C155.395 5.88 155.257 6.41333 155.257 7.032C155.257 7.50133 155.417 7.896 155.737 8.216C156.078 8.536 156.558 8.81333 157.177 9.048C157.795 9.26133 158.553 9.50667 159.449 9.784C160.579 10.104 161.561 10.488 162.393 10.936C163.246 11.384 163.907 11.9493 164.377 12.632C164.846 13.2933 165.081 14.1467 165.081 15.192C165.081 16.6213 164.803 17.848 164.249 18.872C163.715 19.896 162.99 20.728 162.073 21.368C161.155 22.008 160.121 22.488 158.969 22.808C157.838 23.1067 156.654 23.256 155.417 23.256ZM175.826 4.152H169.01L169.81 0.279999H187.826L186.994 4.152H180.21L176.21 23H171.794L175.826 4.152ZM190.668 0.279999H205.388L204.588 4.152H194.22L193.068 9.624H201.996L201.228 13.208H192.3L191.052 19.128H201.676L200.844 23H185.836L190.668 0.279999ZM209.168 0.279999H213.904L217.328 13.208L226.288 0.279999H230.992L226.16 23H221.776L224.976 7.96L217.264 19.16H214.864L211.92 7.96L208.72 23H204.336L209.168 0.279999ZM15.3083 38.28H30.0283L29.2283 42.152H18.8603L17.7083 47.624H26.6363L25.8683 51.208H16.9403L15.6923 57.128H26.3162L25.4843 61H10.4763L15.3083 38.28ZM36.5603 49.8L31.3763 38.28H36.1763L39.5683 46.728L46.5443 38.28H51.3123L41.2323 49.8L46.2243 61H41.4563L38.2563 52.872L31.6003 61H26.8002L36.5603 49.8ZM53.6208 38.28H62.7728C63.9248 38.28 64.9061 38.5787 65.7168 39.176C66.5488 39.7733 67.1781 40.552 67.6048 41.512C68.0314 42.472 68.2448 43.4853 68.2448 44.552C68.2448 45.5973 68.0208 46.6533 67.5728 47.72C67.1248 48.7653 66.5061 49.7147 65.7168 50.568C64.9488 51.4213 64.0421 52.104 62.9968 52.616C61.9728 53.128 60.8848 53.384 59.7328 53.384H54.7728L53.1727 61H48.7888L53.6208 38.28ZM60.2448 49.512C60.6928 49.512 61.1194 49.3947 61.5248 49.16C61.9514 48.9253 62.3248 48.6053 62.6448 48.2C62.9861 47.7733 63.2528 47.2827 63.4448 46.728C63.6368 46.1733 63.7328 45.5653 63.7328 44.904C63.7328 44.328 63.6368 43.8373 63.4448 43.432C63.2741 43.0053 63.0288 42.6853 62.7088 42.472C62.3888 42.2587 62.0368 42.152 61.6528 42.152H57.1728L55.6048 49.512H60.2448ZM72.8395 38.28H77.2235L73.2235 57.128H84.0715L83.2715 61H68.0075L72.8395 38.28ZM94.318 61.16C92.974 61.16 91.7793 60.904 90.734 60.392C89.6887 59.88 88.8033 59.1867 88.078 58.312C87.374 57.416 86.8407 56.4027 86.478 55.272C86.1153 54.1413 85.934 52.9573 85.934 51.72C85.934 50.3547 86.1687 49.0107 86.638 47.688C87.1073 46.344 87.758 45.1067 88.59 43.976C89.4433 42.824 90.4353 41.8107 91.566 40.936C92.6967 40.0613 93.9127 39.3787 95.214 38.888C96.5367 38.376 97.902 38.12 99.31 38.12C100.633 38.12 101.806 38.3867 102.83 38.92C103.875 39.432 104.75 40.136 105.454 41.032C106.179 41.928 106.713 42.9413 107.054 44.072C107.417 45.2027 107.598 46.3867 107.598 47.624C107.598 48.9893 107.363 50.3333 106.894 51.656C106.425 52.9573 105.774 54.184 104.942 55.336C104.11 56.488 103.129 57.5013 101.998 58.376C100.889 59.2507 99.6727 59.9333 98.35 60.424C97.0487 60.9147 95.7047 61.16 94.318 61.16ZM95.182 57.256C96.3553 57.256 97.422 56.9787 98.382 56.424C99.3633 55.848 100.206 55.1013 100.91 54.184C101.635 53.2667 102.179 52.264 102.542 51.176C102.926 50.0667 103.118 48.9893 103.118 47.944C103.118 46.8773 102.937 45.9067 102.574 45.032C102.233 44.136 101.71 43.4213 101.006 42.888C100.323 42.3333 99.4487 42.056 98.382 42.056C97.2087 42.056 96.1313 42.3333 95.15 42.888C94.19 43.4427 93.358 44.1787 92.654 45.096C91.95 46.0133 91.3953 47.0267 90.99 48.136C90.606 49.224 90.414 50.3013 90.414 51.368C90.414 52.4133 90.5847 53.384 90.926 54.28C91.2887 55.176 91.822 55.9013 92.526 56.456C93.23 56.9893 94.1153 57.256 95.182 57.256ZM108.383 61L113.215 38.28H122.815C123.967 38.28 124.948 38.5787 125.759 39.176C126.569 39.7733 127.188 40.552 127.615 41.512C128.063 42.472 128.287 43.4853 128.287 44.552C128.287 45.384 128.148 46.2053 127.871 47.016C127.615 47.8053 127.241 48.552 126.751 49.256C126.26 49.96 125.684 50.5893 125.023 51.144C124.383 51.6987 123.679 52.136 122.911 52.456L125.983 61H120.991L118.303 53.384H114.367L112.766 61H108.383ZM120.287 49.512C120.735 49.512 121.161 49.3947 121.567 49.16C121.972 48.904 122.335 48.5733 122.655 48.168C122.996 47.7413 123.263 47.2613 123.455 46.728C123.647 46.1733 123.743 45.5973 123.743 45C123.743 44.4453 123.647 43.9547 123.455 43.528C123.284 43.1013 123.039 42.7707 122.719 42.536C122.42 42.28 122.079 42.152 121.695 42.152H116.767L115.199 49.512H120.287ZM139.858 38.28H143.794L147.09 61H142.546L141.842 55.336H134.514L131.442 61H126.898L139.858 38.28ZM141.746 52.232L140.754 43.304L135.89 52.232H141.746ZM156.248 42.152H149.432L150.232 38.28H168.248L167.416 42.152H160.632L156.632 61H152.216L156.248 42.152ZM171.09 38.312H175.474L170.641 61H166.258L171.09 38.312ZM184.631 61.16C183.287 61.16 182.092 60.904 181.047 60.392C180.001 59.88 179.116 59.1867 178.391 58.312C177.687 57.416 177.153 56.4027 176.791 55.272C176.428 54.1413 176.247 52.9573 176.247 51.72C176.247 50.3547 176.481 49.0107 176.951 47.688C177.42 46.344 178.071 45.1067 178.903 43.976C179.756 42.824 180.748 41.8107 181.879 40.936C183.009 40.0613 184.225 39.3787 185.527 38.888C186.849 38.376 188.215 38.12 189.623 38.12C190.945 38.12 192.119 38.3867 193.142 38.92C194.188 39.432 195.063 40.136 195.767 41.032C196.492 41.928 197.025 42.9413 197.367 44.072C197.729 45.2027 197.911 46.3867 197.911 47.624C197.911 48.9893 197.676 50.3333 197.207 51.656C196.737 52.9573 196.087 54.184 195.255 55.336C194.423 56.488 193.441 57.5013 192.311 58.376C191.201 59.2507 189.985 59.9333 188.663 60.424C187.361 60.9147 186.017 61.16 184.631 61.16ZM185.495 57.256C186.668 57.256 187.735 56.9787 188.695 56.424C189.676 55.848 190.519 55.1013 191.222 54.184C191.948 53.2667 192.492 52.264 192.855 51.176C193.239 50.0667 193.431 48.9893 193.431 47.944C193.431 46.8773 193.249 45.9067 192.887 45.032C192.545 44.136 192.023 43.4213 191.319 42.888C190.636 42.3333 189.761 42.056 188.695 42.056C187.521 42.056 186.444 42.3333 185.463 42.888C184.503 43.4427 183.671 44.1787 182.967 45.096C182.263 46.0133 181.708 47.0267 181.303 48.136C180.919 49.224 180.727 50.3013 180.727 51.368C180.727 52.4133 180.897 53.384 181.239 54.28C181.601 55.176 182.135 55.9013 182.839 56.456C183.543 56.9893 184.428 57.256 185.495 57.256ZM203.527 38.28H206.951L214.695 53.192L217.863 38.312H222.247L217.415 61H213.863L206.151 46.44L203.079 61H198.695L203.527 38.28Z" fill="white"/>
</svg>
