<svg width="288" height="596" viewBox="0 0 288 596" fill="none" xmlns="http://www.w3.org/2000/svg">
<path style="mix-blend-mode:hard-light" opacity="0.22" d="M-2.44116 534.478C136.51 534.478 249.152 425.703 249.152 291.522C249.152 157.342 136.51 48.5666 -2.44116 48.5666C-141.392 48.5666 -254.034 157.342 -254.034 291.522C-254.034 425.703 -141.392 534.478 -2.44116 534.478Z" fill="url(#paint0_radial_1_5)"/>
<g opacity="0.56">
<path opacity="0.56" d="M258.65 262.604C239.709 271.59 218.53 274.731 197.804 271.629C205.293 266.396 211.684 259.742 216.615 252.043C222.743 242.772 228.38 233.623 234.262 224.229C224.152 230.369 210.61 226.562 198.294 227.974C198.009 228.003 197.722 228.003 197.436 227.974C206.382 206.116 216.493 180.943 219.985 169.83C213 181.434 199.52 193.959 185.855 190.828C191.82 185.965 195.807 179.088 197.069 171.487C187.694 178.671 175.99 178.548 165.022 180.452C168.821 161.234 176.909 135.385 201.787 135.63C182.24 115 151.052 135.63 129.973 141.218C150.684 110.211 173.968 73.6788 138.674 42.9793C165.941 73.1876 76.6643 115.123 71.2721 118.991C71.2721 117.702 83.956 75.5208 52.8898 50.3472C55.5324 61.5936 54.2343 73.4086 49.2133 83.8096C48.2063 74.7154 45.4141 65.9106 40.9973 57.9021C36.5805 49.8937 30.6265 42.8397 23.478 37.1464C30.6471 53.2329 31.5663 94.1861 4.11526 94.9842C-23.3357 95.7824 -26.8896 53.4171 -14.2671 38.006C-27.8088 50.2858 -47.2328 68.7055 -42.3921 87.1252C-84.2426 79.7573 -88.2254 30.0241 -69.2303 0.491191C-68.6789 -0.122799 -68.7402 -0.184198 -69.2303 0.491191C-83.2009 11.4816 -95.3333 32.9099 -100.909 46.9088C-111.387 73.0648 -100.113 88.5987 -89.0833 107.018C-99.0098 105.852 -110.284 107.018 -118.556 105.238C-143.066 100.51 -149.684 87.4322 -154.708 65.6969C-165.615 113.895 -135.836 145.516 -112.245 163.321C-132.098 158.594 -149.01 150.612 -170.701 154.173C-185.346 156.506 -200.113 169.523 -214.145 174.312C-195.762 172.47 -165.125 175.601 -157.833 186.592C-177.931 182.355 -205.75 199.608 -220.823 212.134C-233.078 222.326 -239.819 238.535 -258.14 239.763C-242.76 251.183 -216.902 237 -199.316 238.044C-202.196 239.763 -246.804 278.936 -260.591 261.989C-254.953 282.742 -227.319 295.698 -211.877 300.855C-229.218 306.995 -271.375 294.715 -280.873 277.523C-269.721 304.171 -242.698 338.922 -214.022 349.422C-234.304 360.78 -269.659 369.008 -286.877 354.027C-273.703 374.227 -259.426 390.866 -235.774 395.717C-212.123 400.567 -191.167 394.489 -182.956 382.086C-188.348 411.128 -215.738 427.276 -252.809 433.047C-219.292 436.117 -199.745 437.345 -178.054 419.662C-181.792 442.503 -183.14 447.046 -178.054 470.93C-172.968 494.814 -169.108 520.049 -179.096 544.302C-155.444 523.304 -133.446 485.727 -130.076 454.967C-131.853 480.754 -101.338 500.218 -110.284 525.944C-101.399 518.33 -88.348 491.929 -87.8578 491.192C-83.2009 500.586 -77.9313 509.612 -77.5637 519.804C-77.1348 532.698 -84.4877 541.723 -89.0833 553.88C-75.3578 546.451 -61.5098 539.881 -52.3186 526.005C-45.0882 514.646 -49.3774 489.166 -35.5907 484.254C-36.3872 504.086 -32.098 513.418 -20.6396 530.733C-9.1813 548.047 -11.2034 564.564 -19.1691 583.045C-6.30142 567.634 7.66916 553.512 9.93631 532.268C11.8971 513.848 0.990265 497.639 16.9829 481.491C0.867706 512.19 57.179 535.215 77.3383 527.602C46.2108 527.049 65.0834 471.421 66.4927 469.641C71.2503 480.436 78.1751 490.134 86.8358 498.13C101.464 511.94 118.521 522.912 137.142 530.487C134.63 515.936 125.316 502.919 124.275 487.14C123.294 472.527 129.422 458.466 127.461 444.16C149.152 462.089 160.549 474.86 155.034 503.103C166.431 491.683 170.414 470.869 168.699 452.019C167.657 440.783 153.319 420.215 162.081 410.943C162.081 437.222 228.809 460.799 250.868 459.264C230.141 450.659 211.715 437.306 197.069 420.276C191.12 411.915 186.241 402.839 182.547 393.261C194.013 401.947 206.884 408.593 220.598 412.908C208.833 401.856 203.993 384.296 202.706 368.947C202.706 367.227 202.338 365.385 202.154 363.543C224.275 367.534 250.806 391.787 247.62 408.672C251.48 380.244 246.885 356.421 224.765 334.993C219.924 330.204 216.677 327.134 213.797 324.371C219.056 323.512 224.035 321.407 228.319 318.231C234.233 313.786 239.619 308.677 244.373 303.004C230.725 304.722 216.869 302.596 204.36 296.864C225.521 291.26 244.464 279.305 258.65 262.604ZM122.191 245.903C73.1716 244.921 3.37994 224.72 1.603 273.164C0.928955 291.584 14.4094 309.512 23.2942 324.985C35.0589 345.615 41.3089 371.218 48.1716 394.304C49.6422 399.093 50.7451 403.944 51.7868 408.672C27.277 392.217 -4.89209 400.506 -33.9975 392.155L-39.5122 395.962C-39.9411 361.824 -64.022 331.8 -71.3749 297.048C-81.7916 247.929 -46.8652 203.845 -45.3946 155.831L-56.9754 137.841C-48.1735 143.112 -38.9016 147.552 -29.2794 151.103L22.8652 175.663C42.3506 171.733 60.0589 153.436 70.0466 132.683C72.1409 136.536 74.9241 139.97 78.2574 142.814C87.2035 179.653 87.8163 212.993 113.797 228.281C120.895 232.081 128.615 234.577 136.591 235.649C131.439 238.541 126.611 241.979 122.191 245.903Z" fill="#FFFB64"/>
<path opacity="0.56" d="M220.659 413.154C220.659 413.154 220.904 413.399 220.659 413.154V413.154Z" fill="#FFFB64"/>
</g>
<path d="M-5.56613 491.867C101.608 491.867 188.49 404.809 188.49 297.417C188.49 190.025 101.608 102.966 -5.56613 102.966C-112.741 102.966 -199.623 190.025 -199.623 297.417C-199.623 404.809 -112.741 491.867 -5.56613 491.867Z" fill="#FEC20C"/>
<path opacity="0.38" d="M-146.069 328.853C-151.583 311.538 -164.819 338.493 -161.571 349.115C-182.159 339.291 -188.532 403.207 -151.338 401.856C-156.24 416.224 -141.657 439.985 -124.623 432.556C-121.865 450.976 -99.3775 481.675 -80.0147 465.773C-76.5834 482.964 -58.9975 480.079 -46.8652 473.448C-43.4951 481.429 -34.6103 488.368 -25.4191 484.07C-16.2279 479.772 -20.9461 470.562 -12.3677 467.001C-13.9608 478.789 11.2843 482.78 13.4289 471.851C17.0441 485.175 40.6961 477.132 46.2108 467.001C56.2598 478.789 85.4877 464.483 96.5172 458.957C106.706 453.611 115.562 446.032 122.425 436.784C129.289 427.536 133.984 416.857 136.162 405.54C139.138 405.073 141.974 403.95 144.464 402.251C146.954 400.552 149.037 398.32 150.561 395.717C155.157 388.717 151.787 384.665 154.544 378.463C161.836 361.763 179.36 352.246 181.934 331.309C183.152 322.693 182.377 313.912 179.667 305.644C177.89 300.855 171.211 295.943 170.047 291.645C166.186 277.401 183.895 255.297 165.451 244.307C172.191 231.536 168.453 192.731 146.088 201.696C149.213 183.276 127.706 162.892 110.733 174.619C91.2476 188.126 96.0882 226.931 96.5784 247.868C95.8154 246.088 94.7041 244.48 93.3102 243.138C91.9163 241.796 90.2681 240.748 88.4629 240.055C86.6578 239.363 84.7324 239.04 82.8006 239.106C80.8688 239.171 78.9697 239.625 77.2157 240.438C70.5981 244.245 71.0882 254.192 69.4338 260.577C60.6716 239.579 37.3873 266.717 32.0564 276.295C23.3554 291.829 15.2671 321.055 21.0269 338.738C14.8995 331.002 8.28188 323.818 -3.11519 326.458C-17.4534 330.204 -20.1495 346.413 -30.6887 353.781C-46.4975 333.581 -65.2476 348.808 -77.9927 359.921C-81.3015 330.081 -111.51 351.202 -121.436 362.438C-116.779 345.001 -126.338 337.08 -146.069 328.853Z" fill="#EB9206"/>
<path opacity="0.41" d="M-49.0098 123.105C-71.9878 120.956 -103.176 136.674 -104.525 162.278C-119.169 151.41 -148.397 182.048 -157.221 194.328C-170.918 214.951 -177.147 239.655 -174.868 264.323C-171.314 321.669 -113.225 339.598 -66.2279 319.582C-39.8186 308.407 -4.95343 273.287 -20.701 241.728C-10.7132 241.298 -5.74998 233.685 -7.71077 223.308C19.1275 230.369 50.5613 206.608 57.1177 181.127C72.804 120.588 15.3284 92.0371 -49.0098 123.105Z" fill="#FFFB64"/>
<path d="M-49.0098 463.317C-25.603 463.317 -17.5147 453.554 -2.37993 440.661C21.5171 486.034 107.914 435.994 129.973 409.961C167.841 364.771 175.929 322.59 168.27 263.524C166.077 247.437 160.71 231.949 152.484 217.96C144.257 203.972 133.335 191.764 120.353 182.048C116.002 214.528 130.341 249.096 120.353 281.207C114.716 299.197 106.75 307.732 91.2476 299.013C82.7917 294.224 83.5882 285.812 70.2917 287.224C58.4044 288.575 48.8456 302.881 43.3309 313.073C32.424 333.458 40.8186 405.172 7.85295 404.619C-2.56372 391.787 -22.7843 377.788 -40.2476 384.419C-55.9951 390.559 -69.0466 411.864 -90.3088 408.487C-115.738 404.435 -117.637 364.219 -142.944 358.202C-149.071 356.79 -154.463 362.807 -159.181 361.701C-175.051 357.833 -128.299 463.501 -49.0098 463.317Z" fill="#EB9206"/>
<g style="mix-blend-mode:overlay">
<path d="M111.284 385.524C79.4828 392.34 89.348 348.009 110.488 340.642C141.125 329.897 138.368 366.552 123.355 382.086L111.284 385.524Z" fill="#EB9206"/>
</g>
<g style="mix-blend-mode:overlay">
<path d="M140.696 269.726C128.074 266.165 124.581 240.316 142.167 244.122C142.167 255.42 141.738 267.454 155.953 261.437C162.081 275.129 165.083 300.487 154.544 313.81C136.162 337.08 119.066 303.434 133.833 283.602L140.696 269.726Z" fill="#EB9206"/>
</g>
<path opacity="0.41" d="M-126.154 273.655C-185.468 273.348 -122.417 175.11 -110.407 226.746C-80.8726 233.685 -92.0245 180.267 -85.1005 167.374C-73.7035 146.805 -33.8137 131.394 -35.3456 166.944C-31.0564 159.883 -16.9632 154.664 -20.2108 168.172C0.867661 147.419 44.6789 154.234 28.8088 190.521C22.1912 205.687 5.21812 213.607 -9.79413 216.554C-23.152 219.256 -32.4657 214.037 -44.5368 212.932C-40.4926 222.142 -41.4118 235.342 -53.5441 237.491C-54.1569 262.542 -57.9559 287.716 -78.6667 304.048C-87.4902 311.047 -101.093 319.889 -113.042 318.784C-136.51 316.696 -129.892 294.408 -126.154 273.655Z" fill="#FFFB64"/>
<path opacity="0.41" d="M8.34319 138.823C1.72554 142.139 -13.6544 146.068 -18.8014 136.244C-23.9485 126.421 -9.42641 110.948 -4.27935 121.877C13.7354 109.597 34.2624 132.131 10.9168 137.534L8.34319 138.823Z" fill="#FFFB64"/>
<path opacity="0.41" d="M76.9093 168.663C57.0563 152.515 94.1887 133.052 88.4902 155.217C109.262 136.797 106.873 185.916 96.3946 197.152C74.0294 221.712 47.375 191.381 75.6225 172.593L76.9093 168.663Z" fill="#FFFB64"/>
<g style="mix-blend-mode:overlay">
<path d="M43.2696 153.129C44.6367 147.283 44.463 141.18 42.7657 135.422C41.0684 129.663 37.9057 124.445 33.5883 120.281C26.6642 113.281 12.6324 106.097 3.80882 113.22C-8.44608 100.94 -32.9559 109.167 -38.6544 124.272C-41.7181 117.702 -56.3627 119.789 -62.3676 121.263C-67.0271 122.175 -71.3345 124.388 -74.793 127.647C-78.2514 130.906 -80.7201 135.078 -81.9142 139.683C-98.2132 128.754 -123.52 147.358 -134.304 158.962C-154.282 180.084 -168.98 205.649 -177.196 233.562C-185.958 264.63 -186.939 292.873 -162.245 317.064C-133.569 345.308 -93.5564 346.781 -55.8725 338.615C-21.9877 331.186 12.2647 292.873 19.1275 259.779C35.549 267.761 43.6373 243.815 40.1446 231.72C66.5539 229.325 92.902 155.094 43.2696 153.129Z" fill="#EB9206"/>
</g>
<g style="mix-blend-mode:multiply" opacity="0.16">
<path d="M-87.7965 382.945C-91.5343 375.148 -94.2916 363.543 -102.87 359.245C-111.448 354.947 -125.848 361.333 -117.882 371.525C-134.059 352.614 -152.074 389.945 -145.701 404.558C-159.672 410.698 -136.877 432.31 -131.424 435.257C-116.534 443.608 -93.0049 456.133 -77.5637 442.871C-77.1961 459.449 -53.728 465.711 -42.2083 457.422C-43.7402 476.702 -16.8407 478.789 -6.66911 467.123C-5.5049 484.929 49.4583 474.43 59.4461 471.606C75.5553 466.511 90.4469 458.151 103.196 447.046C112.939 439.248 128.748 425.679 129.667 412.356C141.922 413.277 151.971 396.699 157.179 387.796C161.261 381.877 163.447 374.852 163.447 367.657C163.447 360.462 161.261 353.438 157.179 347.518C174.152 337.879 187.326 303.618 173.294 287.9C187.387 282.497 181.015 242.894 167.473 240.009C183.649 229.264 159.324 191.442 148.172 184.75C118.453 167.128 89.8995 194.512 83.5269 223.001C78.9314 243.447 80.2181 264.63 75.0098 284.953C71.7398 297.996 65.7671 310.203 57.48 320.781C49.1929 331.359 38.777 340.072 26.9093 346.352C12.326 353.781 -2.07352 345.676 -15.9828 352.185C-29.8921 358.693 -35.4681 370.604 -40.4926 384.972C-46.9877 362.561 -74.9289 377.113 -87.7965 382.945Z" fill="#EB9206"/>
</g>
<g style="mix-blend-mode:overlay">
<path d="M91.125 255.481C81.0147 258.674 62.0196 254.744 54.9118 245.842C47.8039 236.939 50.9902 212.932 66.0637 215.142C52.951 192.793 60.9779 150.796 88.6128 142.077C113.49 134.28 128.257 168.602 123.723 189.048C145.23 177.198 147.069 229.325 132.975 241.052C156.076 235.956 149.642 279.488 145.23 290.172C132.615 320.553 110.796 346.196 82.8529 363.482C51.4191 381.226 -0.235323 377.358 -14.7574 338.186C-24.929 310.679 -1.82847 284.953 25.2549 296.25C22.0686 278.322 43.6372 263.77 56.2598 279.427C59.6299 261.56 83.4044 267.884 91.125 255.481Z" fill="#EB9206"/>
</g>
<g style="mix-blend-mode:overlay">
<path d="M-146.865 401.979C-156.424 411.005 -142.637 418.373 -137.797 424.635C-130.934 433.354 -132.221 443.424 -122.6 450.3C-112.98 457.177 -103.054 454.844 -93.8015 462.089C-83.0784 470.562 -76.3995 478.053 -61.4485 474.921C-55.3211 473.632 -56.4852 469.211 -48.5808 470.562C-43.3725 471.483 -39.022 477.807 -34.0588 479.342C-25.4804 482.043 -22.6005 477.377 -14.3897 477.316C-6.17889 477.254 -5.25978 481.245 2.64464 485.42C23.3554 496.472 26.5417 478.053 43.2084 473.509C51.6643 471.176 53.8702 475.658 62.081 470.685C68.2084 467.062 68.9437 463.133 74.9486 461.475C83.6496 458.957 82.2403 463.317 90.1447 456.379C95.2918 451.835 97.4364 445.327 102.767 440.845C108.098 436.363 116.738 435.196 123.11 430.53C131.505 424.39 134.691 414.136 139.654 405.97C145.782 396.146 162.449 388.471 165.206 376.253C166.493 370.113 162.204 366.429 163.49 360.596C164.777 354.763 172.314 350.957 175.071 345.615C179.115 337.633 190.696 269.235 173.907 272.673C167.78 274.024 168.086 301.53 167.351 305.644C164.471 321.055 156.566 325.906 148.968 337.387C142.841 346.843 147.069 357.772 142.841 367.534C136.158 379.335 128.793 390.734 120.782 401.672C112.449 414.934 106.444 409.286 92.5344 412.54C73.0491 417.083 73.6006 439.617 58.5883 447.967C47.4364 454.107 29.2378 449.686 18.0246 446.862C1.23534 442.564 0.500061 448.581 -14.9411 454.107C-29.0955 459.142 -39.451 451.774 -51.3382 446.432C-60.7745 442.196 -65.1862 443.055 -75.848 444.283C-90.8603 446.064 -94.2303 442.748 -104.831 432.003C-110.958 425.863 -115.125 425.863 -122.662 421.381C-131.363 415.671 -133.814 401.427 -146.865 401.979Z" fill="#EB9206"/>
</g>
<path d="M93.6985 88.2918C81.076 85.099 81.4437 59.7412 84.3848 50.4086C88.8579 37.3306 99.0907 31.4977 108.098 21.4283C96.7623 34.322 105.831 40.7075 108.588 54.5837C112.081 71.5912 100.194 76.319 93.6985 88.2918Z" fill="#FFFB64"/>
<path d="M233.404 326.765C248.784 340.642 290.941 345.185 287.816 313.012C275.5 338.001 245.353 307.302 233.404 326.765Z" fill="#FFFB64"/>
<path d="M186.836 162.155C196.395 136.981 223.601 153.682 239.716 140.665C231.689 157.366 207.118 175.478 186.836 162.155Z" fill="#FFFB64"/>
<path d="M22.5588 525.084C2.70586 553.021 47.0687 570.765 43.2696 596C43.2696 582.922 51.7255 569.046 46.8236 556.52C41.9216 543.995 29.6054 537.794 22.5588 525.084Z" fill="#FFFB64"/>
<path d="M177.829 456.379C169.311 481.859 206.199 494.016 216.37 510.717C216.86 498.437 223.172 486.157 214.348 474.491C205.525 462.826 189.348 469.027 177.829 456.379Z" fill="#FFFB64"/>
<path d="M224.397 254.192C233.098 232.334 252.951 238.781 264.532 220.914C259.262 242.587 252.951 250.262 224.397 254.192Z" fill="#FFFB64"/>
<path d="M4.48286 13.999C4.48286 27.6295 -17.0245 82.336 3.62502 83.1956C25.5 84.0552 13.2451 24.4982 4.48286 13.999Z" fill="#FFFB64"/>
<path d="M13.9804 122.184C13.6839 122.203 13.3984 122.304 13.1564 122.477C12.9143 122.649 12.7253 122.886 12.6105 123.161C12.4958 123.435 12.46 123.737 12.5072 124.031C12.5543 124.325 12.6826 124.599 12.8774 124.824C15.2059 127.403 21.4559 128.754 17.2892 132.56C13.1707 135.52 8.35758 137.36 3.31857 137.902C-1.82624 139.128 -7.1712 139.254 -12.3677 138.271C-17.1471 136.981 -16.9633 134.218 -16.7182 129.797C-16.645 129.708 -16.6104 129.593 -16.6219 129.478C-16.6334 129.363 -16.6901 129.257 -16.7795 129.183C-16.8688 129.11 -16.9836 129.076 -17.0985 129.087C-17.2134 129.099 -17.3191 129.155 -17.3922 129.245C-18.6127 129.783 -19.6404 130.682 -20.3381 131.821C-21.0358 132.959 -21.3704 134.284 -21.2972 135.619C-21.2239 136.953 -20.7464 138.233 -19.9283 139.288C-19.1101 140.344 -17.9903 141.124 -16.7182 141.525C-9.79629 144.162 -2.20852 144.486 4.91173 142.446C10.4877 141.279 19.25 139.192 22.2524 133.666C25.2549 128.14 19.3725 122.307 13.9804 122.184Z" fill="#FFFB64"/>
<path d="M-2.07354 172.224C-3.18481 171.218 -4.54305 170.525 -6.00922 170.217C-7.4754 169.909 -8.99688 169.997 -10.4181 170.471C-11.8392 170.946 -13.109 171.791 -14.0976 172.918C-15.0861 174.046 -15.7579 175.417 -16.0441 176.89C-16.1205 177.193 -16.1064 177.512 -16.0036 177.807C-15.9008 178.102 -15.7139 178.361 -15.466 178.55C-15.2181 178.74 -14.9201 178.852 -14.6089 178.874C-14.2978 178.895 -13.9872 178.825 -13.7157 178.671C-5.44365 174.373 -8.44608 192.977 -16.902 194.144C-22.5674 193.833 -28.0284 191.917 -32.6495 188.618C-38.2567 186.747 -43.0005 182.909 -46.0074 177.811C-46.2147 177.448 -46.5072 177.141 -46.8595 176.917C-47.2117 176.692 -47.6133 176.557 -48.0294 176.522C-51.5308 176.506 -54.922 177.748 -57.5882 180.022C-61.5711 165.532 -82.0981 190.091 -67.8824 193.53C-67.7488 193.554 -67.6111 193.542 -67.4844 193.493C-67.3576 193.444 -67.2468 193.361 -67.1644 193.253C-67.0819 193.145 -67.0309 193.016 -67.017 192.88C-67.0031 192.745 -67.027 192.608 -67.0858 192.486C-67.6751 191.508 -68.0411 190.413 -68.1576 189.277C-68.2742 188.141 -68.1383 186.993 -67.7598 185.916C-67.4535 185.118 -61.6324 176.399 -61.2648 184.136C-61.2648 185.548 -59.4265 187.083 -58.0172 185.978C-49.9289 179.838 -50.4804 184.934 -45.7623 188.741C-41.0441 192.547 -36.3873 192.117 -32.0368 195.249C-23.6422 201.389 -18.25 200.836 -9.30394 194.144C-3.48286 189.723 5.34068 179.531 -2.07354 172.224Z" fill="#FFFB64"/>
<path d="M37.7549 171.303C35.8554 163.444 26.9093 149.2 17.8406 157.181C17.8015 157.216 17.7702 157.258 17.7487 157.306C17.7273 157.354 17.7162 157.405 17.7162 157.458C17.7162 157.51 17.7273 157.562 17.7487 157.609C17.7702 157.657 17.8015 157.699 17.8406 157.734C30.0956 158.471 34.5687 172.715 32.3628 182.785C30.5245 191.135 24.4583 196.907 21.946 204.643C21.946 205.441 22.4975 206.362 23.2941 206.055C34.9976 201.511 40.6348 182.294 37.7549 171.303Z" fill="#FFFB64"/>
<path d="M49.6422 136.49C49.5267 135.895 49.2475 135.343 48.8361 134.899C48.4247 134.454 47.8974 134.133 47.3137 133.973C46.7564 133.564 46.1124 133.291 45.432 133.174C44.7517 133.057 44.0535 133.099 43.3921 133.297C42.5696 133.388 41.7981 133.742 41.1913 134.306C40.5846 134.869 40.1747 135.614 40.0221 136.429C40.0221 136.429 40.0221 136.797 40.0221 136.92C39.1798 138.302 38.5789 139.817 38.2451 141.402C38.0623 142.296 38.1318 143.223 38.4456 144.08C38.7595 144.937 39.3054 145.689 40.0221 146.252C40.4812 146.762 41.0469 147.164 41.679 147.43C42.3111 147.696 42.9939 147.818 43.6787 147.789C44.3634 147.76 45.0333 147.579 45.6405 147.26C46.2477 146.942 46.7772 146.493 47.1912 145.945C47.6677 145.631 48.066 145.21 48.3554 144.717C49.8385 142.248 50.3003 139.296 49.6422 136.49Z" fill="#FFFB64"/>
<path d="M60.549 131.639C59.6715 131.639 58.8299 131.989 58.2094 132.611C57.5888 133.232 57.2402 134.076 57.2402 134.955C57.2402 135.834 57.5888 136.678 58.2094 137.299C58.8299 137.921 59.6715 138.271 60.549 138.271C61.4266 138.271 62.2682 137.921 62.8887 137.299C63.5092 136.678 63.8578 135.834 63.8578 134.955C63.8578 134.076 63.5092 133.232 62.8887 132.611C62.2682 131.989 61.4266 131.639 60.549 131.639Z" fill="#FFFB64"/>
<path d="M31.6275 232.764C29.6225 230.883 27.01 229.786 24.2658 229.673C21.5216 229.561 18.8283 230.439 16.6765 232.15C11.6572 233.707 7.09305 236.468 3.37992 240.193C0.686718 242.559 -1.46753 245.478 -2.937 248.751C-4.40647 252.024 -5.15683 255.576 -5.13723 259.165C-5.13723 264.875 -1.64459 269.664 4.48286 269.112C10.6103 268.559 12.9387 263.77 15.5735 259.104C25.5 265.489 41.9216 242.526 31.6275 232.764Z" fill="#FFFB64"/>
<path d="M14.5931 266.165C13.4488 266.499 12.4267 267.16 11.6519 268.068C10.9694 268.519 10.4175 269.143 10.0518 269.876C9.68608 270.609 9.51944 271.425 9.5686 272.243C9.5948 272.784 9.73601 273.314 9.98285 273.796C10.2297 274.278 10.5764 274.702 10.9999 275.039C11.4233 275.376 11.9137 275.619 12.4383 275.751C12.9628 275.883 13.5095 275.901 14.0416 275.804C14.8551 275.748 15.6349 275.457 16.2872 274.967C16.9395 274.477 17.4365 273.808 17.7181 273.041L18.2696 272.489C20.4755 269.787 18.4534 264.937 14.5931 266.165Z" fill="#FFFB64"/>
<path opacity="0.6" d="M2.88973 324.616C-2.42564 324.427 -7.71135 325.489 -12.5427 327.717C-17.3741 329.946 -21.6165 333.279 -24.9289 337.449C-27.9314 341.071 -28.7279 346.168 -31.5465 349.729C-37.674 357.219 -40.8603 347.457 -46.9877 345.124C-55.8113 341.747 -68.5564 349.176 -76.5833 354.825C-83.4461 332.721 -114.267 345.738 -121.804 362.991C-121.866 363.064 -121.902 363.157 -121.905 363.253C-121.909 363.349 -121.88 363.444 -121.823 363.521C-121.767 363.599 -121.686 363.656 -121.594 363.682C-121.501 363.708 -121.403 363.703 -121.314 363.666C-107.711 359.491 -88.7157 335.668 -80.9338 360.166C-80.7607 360.665 -80.4515 361.106 -80.0411 361.438C-79.6308 361.769 -79.1359 361.979 -78.6125 362.043C-78.0892 362.107 -77.5585 362.023 -77.0806 361.799C-76.6028 361.576 -76.197 361.223 -75.9093 360.78C-73.0856 355.807 -68.7017 351.907 -63.4385 349.686C-58.1754 347.465 -52.3277 347.049 -46.8039 348.501C-41.6568 350.22 -38.348 354.641 -33.4461 356.605C-32.5882 356.974 -31.424 356.605 -31.4853 355.5C-31.9755 345.062 -16.9019 334.624 -8.32347 332.046C-3.46188 330.364 1.83875 330.473 6.62749 332.353C10.9167 334.195 13.5515 338.063 17.6569 340.15C17.8418 340.257 18.0513 340.314 18.2648 340.315C18.4783 340.316 18.6882 340.261 18.874 340.155C19.0597 340.05 19.2147 339.898 19.3237 339.714C19.4326 339.53 19.4917 339.321 19.4951 339.107C19.3726 330.449 10.6716 325.722 2.88973 324.616Z" fill="#FFFB64"/>
<path opacity="0.6" d="M140.083 197.766C139.099 194.233 137.031 191.099 134.172 188.807C131.314 186.515 127.808 185.182 124.152 184.995C115.328 184.995 108.772 192.486 104.422 199.362C100.339 205.702 97.5095 212.768 96.0882 220.177C94.8014 227.913 96.6397 235.711 95.2916 243.324C84.2622 234.483 68.9436 241.114 67.6568 256.771C67.6971 256.893 67.7751 257 67.8796 257.076C67.9842 257.152 68.1099 257.193 68.2389 257.193C68.368 257.193 68.4937 257.152 68.5983 257.076C68.7028 257 68.7808 256.893 68.8211 256.771C74.5809 245.964 84.6912 237.491 94.7402 250.631C96.4559 252.78 99.2745 250.631 99.5196 248.666C100.684 239.456 98.7843 230.246 100.377 221.098C101.971 211.949 108.711 193.223 120.23 190.398C131.75 187.574 136.407 200.959 135.978 210.046C135.549 219.133 129.85 228.097 129.238 237.675C129.259 238.36 129.523 239.015 129.982 239.522C130.442 240.03 131.066 240.357 131.744 240.446C132.422 240.534 133.109 240.378 133.682 240.006C134.256 239.633 134.679 239.068 134.875 238.412C137.326 224.659 145.537 212.134 140.083 197.766Z" fill="#FFFB64"/>
<path opacity="0.6" d="M99.9485 302.881C91.3088 296.127 80.2793 284.155 68.5146 283.725C55.7696 283.234 46.701 294.899 41.9215 305.337C33.4657 323.757 34.6911 344.51 30.647 363.973C28.9447 372.12 26.3344 380.049 22.8652 387.612C21.5363 391.236 19.2388 394.424 16.2238 396.828C13.2088 399.232 9.59226 400.759 5.76958 401.242C5.49162 401.32 5.2386 401.468 5.03563 401.673C4.83266 401.879 4.68677 402.134 4.61246 402.413C4.53814 402.692 4.538 402.986 4.61199 403.265C4.68598 403.545 4.83158 403.8 5.03432 404.005C23.7843 421.934 37.2647 366.245 38.5514 357.404C41.4313 337.694 40.3897 311.968 55.647 296.803C73.4166 279.181 82.669 308.776 99.5808 304.293C100.132 304.109 100.439 303.25 99.9485 302.881Z" fill="#FFFB64"/>
<path opacity="0.6" d="M135.427 348.746C132.853 338.8 121.701 336.037 112.632 338.063C100.377 340.764 92.8407 351.816 89.1029 362.991C85.9779 372.262 85.1201 384.48 94.6176 390.252C98.8615 392.33 103.697 392.854 108.286 391.732C112.875 390.61 116.928 387.915 119.74 384.112C119.791 383.986 119.802 383.847 119.773 383.714C119.743 383.581 119.674 383.46 119.575 383.367C119.475 383.274 119.35 383.213 119.216 383.193C119.081 383.172 118.944 383.193 118.821 383.252C114.727 386.5 109.57 388.098 104.36 387.735C101.668 387.495 99.1168 386.42 97.0629 384.659C95.009 382.898 93.5544 380.539 92.902 377.911C90.8186 369.254 96.701 357.158 102.338 351.018C109.691 343.036 121.762 340.519 129.605 348.808C130.096 349.237 132.424 353.351 134.017 351.939L134.875 351.141C135.186 350.837 135.404 350.449 135.502 350.025C135.6 349.6 135.573 349.156 135.427 348.746Z" fill="#FFFB64"/>
<path opacity="0.6" d="M134.446 240.807C122.988 248.236 126.726 261.744 134.446 270.278C109.936 279.304 123.662 344.694 151.848 319.398C152.522 318.722 151.848 317.74 150.929 317.924C136.591 320.441 128.931 316.082 127.032 301.039C125.745 291.277 128.074 274.515 140.757 274.883C141.394 274.871 142.009 274.651 142.511 274.258C143.013 273.865 143.373 273.32 143.539 272.704C143.705 272.088 143.667 271.435 143.43 270.842C143.194 270.25 142.772 269.75 142.228 269.419C139.141 267.506 136.606 264.818 134.875 261.621C130.218 252.207 133.69 246.619 145.292 244.859C149.52 246.456 154.36 255.972 155.953 260.147C155.953 260.261 155.999 260.371 156.079 260.451C156.16 260.532 156.269 260.577 156.382 260.577C156.496 260.577 156.605 260.532 156.686 260.451C156.766 260.371 156.811 260.261 156.811 260.147C157.853 248.911 146.885 232.702 134.446 240.807Z" fill="#FFFB64"/>
<path opacity="0.6" d="M66.0025 372.753C50.3162 367.412 39.2868 386.998 41.4927 400.628C39.1436 401.773 37.2554 403.688 36.141 406.055C35.0266 408.423 34.7529 411.1 35.3652 413.645C19.8015 417.943 -5.62743 437.345 13.0613 452.449C21.3946 459.203 34.0172 457.914 43.3309 454.23C49.8873 451.651 62.0809 444.897 59.9975 436.178C59.924 435.957 59.797 435.758 59.6279 435.598C59.4588 435.438 59.2528 435.323 59.0284 435.262C58.8039 435.201 58.5679 435.197 58.3415 435.25C58.115 435.303 57.9051 435.411 57.7304 435.564C53.1348 439.555 50.8677 444.345 45.0466 447.353C37.9395 451.367 29.5976 452.593 21.6397 450.791C9.87503 446.801 10.3652 435.257 18.9436 427.89C24.9423 423.279 31.8587 420.013 39.2255 418.311C39.6257 418.189 39.9938 417.979 40.303 417.697C40.6122 417.415 40.8548 417.067 41.0132 416.679C41.1716 416.291 41.2418 415.872 41.2187 415.454C41.1957 415.035 41.08 414.627 40.8799 414.259L43.8211 405.172C44.2529 405.281 44.7057 405.276 45.135 405.158C45.5643 405.039 45.9556 404.811 46.2706 404.495C46.5855 404.179 46.8133 403.787 46.9317 403.357C47.0501 402.927 47.0551 402.473 46.9461 402.041C43.6373 391.419 52.1544 369.315 67.0441 376.99C81.9338 384.665 69.6789 405.295 63.4902 413.829C63.4902 414.198 63.4902 414.566 64.0417 414.443C79.299 407.137 85.7329 379.446 66.0025 372.753Z" fill="#FFFB64"/>
<path opacity="0.6" d="M91.2476 327.993C90.4719 325.853 88.8857 324.105 86.8327 323.128C84.7797 322.151 82.4252 322.024 80.2795 322.775C82.3015 315.407 81.1986 305.767 71.3946 309.144C61.5907 312.521 53.5637 329.467 64.4093 335.3C64.572 335.389 64.7592 335.423 64.9427 335.397C65.1263 335.37 65.2964 335.285 65.4275 335.154C65.5586 335.022 65.6437 334.852 65.67 334.668C65.6963 334.484 65.6625 334.296 65.5736 334.133C64.1741 331.047 63.7998 327.592 64.5057 324.276C65.2116 320.96 66.9605 317.959 69.4951 315.714C77.7059 308.653 77.4608 320.073 74.3971 325.292C74.1573 325.766 74.0913 326.31 74.2105 326.828C74.3297 327.347 74.6266 327.807 75.0494 328.128C75.4723 328.45 75.9944 328.612 76.5246 328.588C77.0548 328.563 77.5596 328.353 77.951 327.993C89.4706 318.17 90.2059 341.256 84.0785 347.457C80.704 350.763 76.4487 353.023 71.8235 353.965C64.8383 355.009 63.5515 350.711 61.3456 345.308C61.2327 344.983 61.0216 344.701 60.7416 344.502C60.4616 344.302 60.1266 344.195 59.7831 344.195C59.4396 344.195 59.1046 344.302 58.8246 344.502C58.5446 344.701 58.3335 344.983 58.2206 345.308C57.6779 346.875 57.5324 348.552 57.7971 350.19C58.0617 351.827 58.7284 353.373 59.737 354.688C60.7457 356.003 62.0647 357.046 63.5755 357.724C65.0863 358.402 66.7414 358.692 68.3922 358.57C72.2635 358.21 76.0244 357.08 79.4543 355.245C82.8843 353.411 85.9146 350.909 88.3677 347.887C90.5115 345.097 91.9025 341.802 92.4069 338.318C92.9113 334.834 92.5121 331.278 91.2476 327.993Z" fill="#FFFB64"/>
<path opacity="0.6" d="M114.532 270.463C117.289 265.121 118.27 257.446 111.223 255.236C109.421 254.819 107.535 254.952 105.809 255.62C104.083 256.288 102.597 257.458 101.542 258.981C94.7224 264.427 90.3194 272.347 89.2868 281.023C89.2736 281.963 89.5406 282.886 90.0536 283.674C90.5666 284.461 91.3023 285.078 92.1667 285.444C92.8083 286.426 93.7999 287.125 94.9387 287.399C96.0775 287.673 97.2777 287.5 98.2941 286.917L100.194 285.689L101.603 285.137C102.354 285.096 103.077 284.841 103.686 284.4C104.733 283.575 105.698 282.649 106.566 281.637C107.786 280.386 108.893 279.03 109.875 277.585C111.979 275.623 113.577 273.179 114.532 270.463Z" fill="#FFFB64"/>
<path opacity="0.6" d="M90.0833 255.85C89.2913 256.269 88.6007 256.858 88.0605 257.575C87.5202 258.291 87.1433 259.117 86.9564 259.996C86.7694 260.874 86.7769 261.782 86.9784 262.657C87.1799 263.532 87.5705 264.352 88.1225 265.059C88.7276 265.675 89.5209 266.07 90.376 266.181C91.2311 266.293 92.0988 266.114 92.8407 265.673C93.4768 265.287 94.0375 264.788 94.4951 264.2L95.2916 263.34C95.6593 262.849 95.9044 262.419 96.2108 261.928C96.6889 261.073 96.8739 260.084 96.7374 259.113C96.6009 258.142 96.1504 257.243 95.455 256.553C94.7597 255.863 93.8578 255.421 92.8875 255.294C91.9172 255.167 90.9322 255.362 90.0833 255.85Z" fill="#FFFB64"/>
<path opacity="0.6" d="M48.4779 273.225C35.1814 261.375 23.2329 279.365 19.1887 292.014C13.0613 289.005 2.46078 292.321 -3.42157 294.777C-9.44642 297.351 -14.2615 302.135 -16.8814 308.151C-19.5013 314.166 -19.7278 320.957 -17.5147 327.134C-17.429 327.409 -17.258 327.649 -17.0265 327.819C-16.795 327.99 -16.5152 328.082 -16.2279 328.082C-15.9406 328.082 -15.6608 327.99 -15.4293 327.819C-15.1978 327.649 -15.0268 327.409 -14.9412 327.134C-11.8774 318.354 -13.9608 309.574 -6.11766 302.574C-2.13482 299.074 14.9608 290.294 17.902 298.706C18.8211 301.285 23.2941 302.022 24.0294 298.706C24.3174 294.692 25.4489 290.785 27.3497 287.24C29.2505 283.695 31.8776 280.593 35.0588 278.137C40.3897 275.006 48.049 274.822 46.4559 282.988C45.598 287.654 40.3285 290.417 36.5294 291.891C36.5294 291.891 36.5294 292.198 36.5294 292.259C46.701 297.171 56.9951 280.839 48.4779 273.225Z" fill="#FFFB64"/>
<path opacity="0.6" d="M-6.9142 355.009C-10.1123 355.363 -13.1572 356.57 -15.7326 358.503C-18.308 360.435 -20.3197 363.024 -21.5588 365.999C-21.7686 366.714 -21.8089 367.469 -21.6767 368.202C-21.5444 368.935 -21.2432 369.628 -20.797 370.224C-20.3508 370.82 -19.7718 371.303 -19.1063 371.636C-18.4407 371.969 -17.7069 372.141 -16.9632 372.139H-16.3505C-16.1629 372.435 -15.9361 372.703 -15.6765 372.938C-10.4068 378.156 -3.42156 374.411 0.500006 368.885C2.53333 367.336 4.03296 365.19 4.78925 362.745C6.50493 355.377 -1.82842 354.088 -6.9142 355.009Z" fill="#FFFB64"/>
<path opacity="0.6" d="M131.566 411.68C131.482 411.196 131.23 410.756 130.855 410.44C130.479 410.123 130.004 409.949 129.514 409.949C129.023 409.949 128.548 410.123 128.172 410.44C127.797 410.756 127.545 411.196 127.461 411.68C126.235 421.566 128.748 423.96 114.042 431.389C113 431.942 111.529 431.389 110.488 432.126C107.81 433.392 105.476 435.288 103.686 437.652C100.439 442.441 99.9485 448.642 96.8235 453.493C90.2672 463.44 81.3824 458.773 72.3137 460.984C69.7171 461.981 67.343 463.484 65.3284 465.404C59.201 469.764 58.5882 470.255 48.4167 468.413C46.701 468.413 45.5368 466.755 43.7598 466.755C40.6572 466.772 37.6061 467.552 34.875 469.027C33.772 469.58 33.4657 471.176 32.4853 471.729C30.2093 472.738 27.7032 473.111 25.2327 472.808C22.7623 472.505 20.4196 471.538 18.4534 470.009C18.3709 469.974 18.2801 469.961 18.1911 469.974C18.1021 469.986 18.0182 470.023 17.9486 470.08C17.879 470.137 17.8264 470.212 17.7965 470.297C17.7667 470.382 17.7608 470.474 17.7794 470.562C18.0795 473.219 19.2862 475.691 21.1954 477.559C23.1046 479.428 25.5992 480.578 28.2573 480.816C33.0367 480.816 33.2206 478.482 36.5907 476.456C45.3529 471.299 52.5833 478.482 61.1005 474.676C68.3922 471.36 69.6789 464.79 78.4412 464.483C85.3652 464.483 90.6961 465.589 96.0882 460.308C101.48 455.028 102.216 448.028 105.647 441.889C110.365 433.845 120.659 436.731 126.848 430.284C128.968 427.731 130.492 424.736 131.308 421.517C132.125 418.298 132.213 414.938 131.566 411.68Z" fill="#FFFB64"/>
<path opacity="0.6" d="M168.944 356.421C168.971 356.295 168.962 356.163 168.917 356.042C168.871 355.921 168.793 355.815 168.689 355.738C168.586 355.66 168.463 355.614 168.334 355.604C168.205 355.595 168.077 355.623 167.963 355.684C164.964 357.902 161.689 359.718 158.221 361.088C157.628 361.259 157.127 361.659 156.828 362.2C156.529 362.741 156.457 363.379 156.627 363.973C159.017 370.113 159.752 389.454 149.336 388.533C148.907 388.533 148.784 389.024 149.029 389.331C154.238 395.041 159.446 390.191 161.284 384.296C163.407 377.881 163.578 370.977 161.775 364.464C163.476 363.718 164.997 362.614 166.234 361.226C167.471 359.838 168.395 358.199 168.944 356.421Z" fill="#FFFB64"/>
<path opacity="0.6" d="M170.966 295.022C170.686 294.86 170.369 294.775 170.046 294.775C169.724 294.775 169.406 294.861 169.127 295.022C168.847 295.184 168.616 295.417 168.454 295.697C168.293 295.977 168.208 296.295 168.208 296.619C168.036 297.557 168.085 298.524 168.351 299.44C168.617 300.357 169.093 301.199 169.74 301.899C173.539 307.67 178.074 309.205 178.503 317.494C178.997 328.756 176.547 339.953 171.395 349.974C171.088 350.465 171.824 350.834 172.13 350.404C182.914 335.607 190.941 306.135 170.966 295.022Z" fill="#FFFB64"/>
<path opacity="0.6" d="M148.049 66.0653C148.049 65.7885 147.939 65.523 147.744 65.3272C147.549 65.1315 147.284 65.0215 147.007 65.0215C146.731 65.0215 146.466 65.1315 146.271 65.3272C146.075 65.523 145.966 65.7885 145.966 66.0653C145.905 67.0467 145.905 68.031 145.966 69.0125C144.311 69.6264 142.412 77.2399 141.37 79.1433C137.311 86.9886 131.321 93.6666 123.968 98.5454C118.392 102.107 112.203 104.685 106.689 108.124C100.132 112.422 88.3063 122.552 98.5392 129.552C99.9485 130.473 101.235 128.692 100.623 127.464C94.4951 114.57 118.331 107.694 126.358 102.905C138.429 94.8614 149.52 80.9852 148.049 66.0653Z" fill="#FFFB64"/>
<path opacity="0.6" d="M142.351 90.8091C139.26 96.7588 136.578 102.913 134.324 109.229C131.321 117.395 126.358 123.965 122.681 131.639C122.575 131.813 122.529 132.016 122.55 132.218C122.572 132.42 122.659 132.61 122.799 132.757C122.939 132.904 123.123 133 123.324 133.032C123.524 133.063 123.729 133.027 123.907 132.929C137.51 125.193 138.797 104.01 142.289 90.6863C142.596 90.8091 142.412 90.6863 142.351 90.8091Z" fill="#FFFB64"/>
<path opacity="0.6" d="M179.299 131.701C169.246 131.077 159.242 133.54 150.623 138.762C144.066 142.2 132.853 149.445 134.569 158.225C134.936 160.067 137.387 160.006 138.306 158.716C142.567 151.543 149.01 145.927 156.689 142.691C164.045 139.705 171.743 137.642 179.605 136.551C180.128 136.374 180.578 136.028 180.885 135.569C181.192 135.109 181.34 134.561 181.305 134.009C181.27 133.456 181.055 132.931 180.692 132.514C180.33 132.097 179.84 131.811 179.299 131.701Z" fill="#FFFB64"/>
<path opacity="0.6" d="M176.848 134.648C169.674 137.747 163.712 143.118 159.875 149.936C154.912 156.677 151.844 164.628 150.99 172.961C150.99 173.698 152.032 174.312 152.583 173.636C156.191 167.61 159.228 161.258 161.652 154.664C165.429 147.213 170.733 140.643 177.216 135.385C177.216 135.385 177.154 134.525 176.848 134.648Z" fill="#FFFB64"/>
<path opacity="0.6" d="M37.0196 63.1795C33.5882 75.4593 30.8922 87.0638 20.7819 95.9666C32.1177 90.6249 36.652 74.5998 37.326 63.0567C37.7549 62.9953 37.0809 62.9954 37.0196 63.1795Z" fill="#FFFB64"/>
<path opacity="0.6" d="M59.6912 76.1961C59.6459 76.0441 59.5529 75.9107 59.426 75.8159C59.299 75.721 59.1448 75.6698 58.9865 75.6698C58.8281 75.6698 58.674 75.721 58.5471 75.8159C58.4201 75.9107 58.3271 76.0441 58.2818 76.1961C55.8214 85.658 50.8447 94.2734 43.8824 101.124C45.1081 88.0976 42.7784 74.9822 37.1422 63.1796C37.1422 63.1796 37.1422 63.1796 37.1422 63.1796C39.5089 77.3755 40.4123 91.7777 39.8382 106.159C39.8537 106.507 39.9676 106.844 40.1667 107.13C40.3658 107.417 40.6419 107.64 40.9629 107.775C41.2838 107.91 41.6364 107.951 41.9797 107.893C42.323 107.835 42.6428 107.681 42.9019 107.448C49.0294 100.633 56.2598 93.2651 58.527 84.2394C61.1005 74.2928 58.5269 82.336 59.3848 86.8796C59.708 93.2484 60.5896 99.5764 62.0196 105.79C62.0949 106.007 62.2356 106.195 62.4222 106.328C62.6089 106.461 62.8322 106.532 63.0612 106.532C63.2903 106.532 63.5136 106.461 63.7003 106.328C63.8869 106.195 64.0277 106.007 64.1029 105.79C66.5539 96.0894 61.223 85.8358 59.6912 76.1961Z" fill="#FFFB64"/>
<path opacity="0.6" d="M0.622587 525.391C0.622587 524.9 -0.173992 524.961 -0.296543 525.391C-2.01223 532.513 -2.99263 539.943 -4.89214 547.004C-4.84445 542.115 -5.71755 537.262 -7.46566 532.698C-11.8162 522.198 -20.6397 516.059 -22.0491 503.779H-22.4167C-22.1056 510.711 -19.9934 517.441 -16.2892 523.304C-11.1619 534.427 -8.74668 546.612 -9.24263 558.854C-9.23857 559.253 -9.09092 559.637 -8.8268 559.936C-8.56269 560.235 -8.19984 560.428 -7.80492 560.48C-7.40999 560.532 -7.00954 560.44 -6.67706 560.22C-6.34458 560 -6.10242 559.668 -5.99508 559.283C-1.33821 547.74 2.95102 538.039 0.622587 525.391Z" fill="#FFFB64"/>
<path opacity="0.6" d="M58.6495 521.277C50.8064 516.55 53.8088 505.191 53.5637 497.884C53.5637 497.148 52.3994 496.718 52.0931 497.455C50.5563 500.978 49.8666 504.814 50.0795 508.653C50.2923 512.492 51.4018 516.227 53.3186 519.558C47.8586 517.771 42.7107 515.14 38.0613 511.761C31.9338 507.278 28.5637 500.463 22.8039 495.92H22.3137C22.3137 503.288 29.4828 509.796 34.5686 514.032C41.1886 519.046 48.7557 522.659 56.8112 524.654C57.2294 524.73 57.6609 524.672 58.0443 524.489C58.4277 524.305 58.7436 524.005 58.9471 523.631C59.1507 523.257 59.2314 522.828 59.178 522.406C59.1245 521.983 58.9396 521.589 58.6495 521.277Z" fill="#FFFB64"/>
<path opacity="0.6" d="M124.091 519.251C113.919 504.945 116.431 487.262 117.289 471.115C117.289 469.395 115.206 469.15 114.348 470.316C109.752 476.456 111.346 487.754 112.387 494.876C113.215 500.779 114.78 506.555 117.044 512.068C112.387 507.831 107.424 503.84 102.89 499.788C96.0883 493.218 90.6348 485.482 83.9559 478.851C83.9559 478.851 83.527 478.851 83.5883 478.851C88.9192 496.104 108.098 511.024 121.885 521.339C123.172 522.198 125.01 520.479 124.091 519.251Z" fill="#FFFB64"/>
<path opacity="0.6" d="M160.304 444.099C160.304 443.731 159.446 444.099 159.507 444.099C160.398 452.765 159.608 461.522 157.179 469.887C155.096 456.747 144.495 442.073 132.669 438.757C144.495 445.757 156.26 461.352 155.831 475.597C155.831 476.825 157.485 476.947 157.914 475.597C160.794 466.325 165.022 454.291 160.304 444.099Z" fill="#FFFB64"/>
<path opacity="0.6" d="M186.162 417.145C186.072 416.966 185.916 416.829 185.726 416.766C185.537 416.703 185.329 416.718 185.151 416.807C184.972 416.897 184.836 417.054 184.773 417.244C184.71 417.434 184.724 417.641 184.814 417.82C185.196 422.208 186.671 426.43 189.103 430.1C190.768 432.058 192.323 434.108 193.76 436.24L191.186 434.521C180.714 427.543 172.546 417.606 167.718 405.97C167.718 405.97 167.106 405.97 167.228 405.97C168.843 413.414 172.322 420.323 177.338 426.048C181.905 432.298 188.346 436.923 195.721 439.248C195.831 439.27 195.946 439.261 196.052 439.221C196.157 439.182 196.25 439.114 196.32 439.025C196.39 438.936 196.434 438.83 196.447 438.718C196.46 438.605 196.442 438.491 196.395 438.389C192.412 431.696 189.409 424.39 186.162 417.145Z" fill="#FFFB64"/>
<path opacity="0.6" d="M197.069 383.805C196.718 379.074 196.022 374.374 194.985 369.745C194.916 369.557 194.79 369.395 194.626 369.28C194.462 369.166 194.266 369.104 194.066 369.104C193.866 369.104 193.671 369.166 193.506 369.28C193.342 369.395 193.217 369.557 193.147 369.745C191.731 377.211 192.302 384.919 194.801 392.094C192.473 389.761 190.267 387.366 187.939 385.033C185.184 381.614 181.203 379.41 176.848 378.893C176.757 378.896 176.668 378.924 176.592 378.974C176.516 379.025 176.456 379.095 176.418 379.178C176.38 379.261 176.365 379.353 176.376 379.444C176.387 379.534 176.423 379.62 176.48 379.691C179.85 383.375 183.956 386.322 187.326 390.068C190.251 393.758 193.675 397.023 197.498 399.769C197.827 399.939 198.198 400.013 198.567 399.98C198.937 399.948 199.289 399.812 199.584 399.587C199.88 399.362 200.105 399.058 200.234 398.709C200.364 398.361 200.392 397.983 200.316 397.62C198.964 393.083 197.88 388.47 197.069 383.805Z" fill="#FFFB64"/>
<path opacity="0.6" d="M222.375 274.822C216.554 275.866 210.855 277.216 204.912 277.83C200.62 277.789 196.353 278.474 192.289 279.857C192.289 279.857 192.289 280.286 192.289 280.409C199.581 283.663 210.978 281.453 219.311 278.813C216.099 282.147 212.376 284.945 208.282 287.102C203.809 289.619 198.968 290.049 194.556 292.259C194.417 292.348 194.303 292.47 194.223 292.615C194.144 292.76 194.102 292.923 194.102 293.088C194.102 293.253 194.144 293.416 194.223 293.561C194.303 293.706 194.417 293.828 194.556 293.917C198.846 296.987 205.708 293.242 209.446 290.786C214.61 286.686 219.37 282.101 223.662 277.094C224.704 276.111 223.601 274.638 222.375 274.822Z" fill="#FFFB64"/>
<path opacity="0.6" d="M227.706 310.863C224.704 309.144 220.292 306.013 216.677 306.995C216.542 307.036 216.421 307.112 216.326 307.215C216.23 307.318 216.164 307.444 216.133 307.581C216.102 307.718 216.107 307.861 216.149 307.996C216.191 308.13 216.267 308.251 216.37 308.346C218.539 310.204 221.061 311.604 223.784 312.459C221.14 313.349 218.279 313.349 215.635 312.459C212.578 311.749 209.585 310.783 206.689 309.574C206.382 309.574 206.137 309.574 206.689 310.065C209.987 313.035 213.964 315.143 218.27 316.205C220.034 316.567 221.859 316.494 223.589 315.991C225.318 315.489 226.9 314.571 228.196 313.319C228.397 313.157 228.549 312.943 228.637 312.7C228.725 312.458 228.745 312.195 228.694 311.942C228.644 311.689 228.525 311.454 228.351 311.264C228.176 311.074 227.953 310.935 227.706 310.863Z" fill="#FFFB64"/>
<path opacity="0.6" d="M215.083 230.922C205.525 235.404 192.902 234.237 186.713 244.368C186.663 244.494 186.651 244.633 186.681 244.766C186.71 244.899 186.779 245.02 186.879 245.113C186.978 245.206 187.103 245.267 187.238 245.287C187.372 245.308 187.51 245.287 187.632 245.228C195.61 240.852 203.93 237.135 212.51 234.114C209.814 237.921 207.73 242.035 205.402 246.394C202.137 251.99 198 257.027 193.147 261.314C192.044 262.358 193.147 263.709 194.434 263.586C207.547 261.805 212.02 242.833 216.493 232.886C216.621 232.794 216.731 232.676 216.814 232.541C216.898 232.406 216.954 232.256 216.98 232.099C217.005 231.943 217 231.782 216.963 231.628C216.927 231.473 216.861 231.327 216.768 231.198C216.676 231.069 216.559 230.959 216.424 230.876C216.289 230.792 216.139 230.736 215.983 230.71C215.827 230.684 215.667 230.69 215.512 230.726C215.358 230.762 215.212 230.829 215.083 230.922Z" fill="#FFFB64"/>
<path style="mix-blend-mode:hard-light" opacity="0.22" d="M-6.3627 491.867C101.252 491.867 188.49 404.287 188.49 296.25C188.49 188.214 101.252 100.633 -6.3627 100.633C-113.977 100.633 -201.216 188.214 -201.216 296.25C-201.216 404.287 -113.977 491.867 -6.3627 491.867Z" fill="url(#paint1_radial_1_5)"/>
<defs>
<radialGradient id="paint0_radial_1_5" cx="0" cy="0" r="1" gradientUnits="userSpaceOnUse" gradientTransform="translate(-15.0704 294.592) scale(256.552 241.951)">
<stop stop-color="white"/>
<stop offset="0.1" stop-color="#FFFFEE"/>
<stop offset="0.29" stop-color="#FEFFC1"/>
<stop offset="0.41" stop-color="#FDFFA1"/>
<stop offset="0.52" stop-color="#FEE879"/>
<stop offset="0.64" stop-color="#FFCA45"/>
</radialGradient>
<radialGradient id="paint1_radial_1_5" cx="0" cy="0" r="1" gradientUnits="userSpaceOnUse" gradientTransform="translate(-38020 -45821.3) scale(12064.7 12112)">
<stop stop-color="white"/>
<stop offset="0.1" stop-color="#FFFFEE"/>
<stop offset="0.29" stop-color="#FEFFC1"/>
<stop offset="0.41" stop-color="#FDFFA1"/>
<stop offset="0.52" stop-color="#FEE879"/>
<stop offset="0.64" stop-color="#FFCA45"/>
</radialGradient>
</defs>
</svg>
